{
    "asset" : {
        "generator" : "Khronos glTF Blender I/O v1.5.17",
        "version" : "2.0"
    },
    "scene" : 0,
    "scenes" : [
        {
            "name" : "Scene",
            "nodes" : [
                0
            ]
        }
    ],
    "nodes" : [
        {
            "mesh" : 0,
            "name" : "mergedBlocks(Clone)"
        }
    ],
    "materials" : [
        {
            "name" : "wood(Clone)",
            "pbrMetallicRoughness" : {
                "baseColorFactor" : [
                    0.49102088809013367,
                    0.1811642348766327,
                    0.06301004439592361,
                    1
                ],
                "metallicFactor" : 0.5
            }
        },
        {
            "name" : "woodDark(Clone)",
            "pbrMetallicRoughness" : {
                "baseColorFactor" : [
                    0.23455065488815308,
                    0.08865564316511154,
                    0.03189602866768837,
                    1
                ],
                "metallicFactor" : 0.5
            }
        },
        {
            "name" : "iron(Clone)",
            "pbrMetallicRoughness" : {
                "baseColorFactor" : [
                    0.11697069555521011,
                    0.11697069555521011,
                    0.11697069555521011,
                    1
                ],
                "metallicFactor" : 0.5
            }
        },
        {
            "name" : "window(Clone)",
            "pbrMetallicRoughness" : {
                "baseColorFactor" : [
                    0.39675530791282654,
                    0.5028865933418274,
                    0.5520114898681641,
                    1
                ],
                "metallicFactor" : 0.5
            }
        },
        {
            "name" : "textile(Clone)",
            "pbrMetallicRoughness" : {
                "baseColorFactor" : [
                    0.6375969648361206,
                    0.5271151661872864,
                    0.4072403609752655,
                    1
                ],
                "metallicFactor" : 0.5
            }
        },
        {
            "name" : "_defaultMat(Clone)",
            "pbrMetallicRoughness" : {
                "metallicFactor" : 0.5
            }
        }
    ],
    "meshes" : [
        {
            "name" : "Mesh_0",
            "primitives" : [
                {
                    "attributes" : {
                        "POSITION" : 0,
                        "NORMAL" : 1,
                        "TEXCOORD_0" : 2
                    },
                    "indices" : 3,
                    "material" : 0
                },
                {
                    "attributes" : {
                        "POSITION" : 4,
                        "NORMAL" : 5,
                        "TEXCOORD_0" : 6
                    },
                    "indices" : 7,
                    "material" : 1
                },
                {
                    "attributes" : {
                        "POSITION" : 8,
                        "NORMAL" : 9,
                        "TEXCOORD_0" : 10
                    },
                    "indices" : 11,
                    "material" : 2
                },
                {
                    "attributes" : {
                        "POSITION" : 12,
                        "NORMAL" : 13,
                        "TEXCOORD_0" : 14
                    },
                    "indices" : 15,
                    "material" : 3
                },
                {
                    "attributes" : {
                        "POSITION" : 16,
                        "NORMAL" : 17,
                        "TEXCOORD_0" : 18
                    },
                    "indices" : 19,
                    "material" : 4
                },
                {
                    "attributes" : {
                        "POSITION" : 20,
                        "NORMAL" : 21,
                        "TEXCOORD_0" : 22
                    },
                    "indices" : 23,
                    "material" : 5
                }
            ]
        }
    ],
    "accessors" : [
        {
            "bufferView" : 0,
            "componentType" : 5126,
            "count" : 9256,
            "max" : [
                2.683600425720215,
                13.09174633026123,
                8.761083602905273
            ],
            "min" : [
                -3.0167922973632812,
                -3.609558112830296e-16,
                -7.337296485900879
            ],
            "type" : "VEC3"
        },
        {
            "bufferView" : 1,
            "componentType" : 5126,
            "count" : 9256,
            "type" : "VEC3"
        },
        {
            "bufferView" : 2,
            "componentType" : 5126,
            "count" : 9256,
            "type" : "VEC2"
        },
        {
            "bufferView" : 3,
            "componentType" : 5123,
            "count" : 14217,
            "type" : "SCALAR"
        },
        {
            "bufferView" : 4,
            "componentType" : 5126,
            "count" : 897,
            "max" : [
                2.283550262451172,
                4.628982067108154,
                0.2952852249145508
            ],
            "min" : [
                -2.616741180419922,
                2.1147961616516113,
                -7.079756736755371
            ],
            "type" : "VEC3"
        },
        {
            "bufferView" : 5,
            "componentType" : 5126,
            "count" : 897,
            "type" : "VEC3"
        },
        {
            "bufferView" : 6,
            "componentType" : 5126,
            "count" : 897,
            "type" : "VEC2"
        },
        {
            "bufferView" : 7,
            "componentType" : 5123,
            "count" : 1254,
            "type" : "SCALAR"
        },
        {
            "bufferView" : 8,
            "componentType" : 5126,
            "count" : 6562,
            "max" : [
                2.22174072265625,
                6.251482009887695,
                7.156793117523193
            ],
            "min" : [
                -2.554931640625,
                2.554795980453491,
                -6.315924644470215
            ],
            "type" : "VEC3"
        },
        {
            "bufferView" : 9,
            "componentType" : 5126,
            "count" : 6562,
            "type" : "VEC3"
        },
        {
            "bufferView" : 10,
            "componentType" : 5126,
            "count" : 6562,
            "type" : "VEC2"
        },
        {
            "bufferView" : 11,
            "componentType" : 5123,
            "count" : 10488,
            "type" : "SCALAR"
        },
        {
            "bufferView" : 12,
            "componentType" : 5126,
            "count" : 152,
            "max" : [
                2.1335506439208984,
                4.295529842376709,
                -3.988964796066284
            ],
            "min" : [
                -2.4667415618896484,
                3.44053053855896,
                -5.818964958190918
            ],
            "type" : "VEC3"
        },
        {
            "bufferView" : 13,
            "componentType" : 5126,
            "count" : 152,
            "type" : "VEC3"
        },
        {
            "bufferView" : 14,
            "componentType" : 5126,
            "count" : 152,
            "type" : "VEC2"
        },
        {
            "bufferView" : 15,
            "componentType" : 5123,
            "count" : 156,
            "type" : "SCALAR"
        },
        {
            "bufferView" : 16,
            "componentType" : 5126,
            "count" : 1743,
            "max" : [
                2.5412425994873047,
                13.001747131347656,
                5.462993144989014
            ],
            "min" : [
                -2.8742809295654297,
                3.208496570587158,
                -7.434048652648926
            ],
            "type" : "VEC3"
        },
        {
            "bufferView" : 17,
            "componentType" : 5126,
            "count" : 1743,
            "type" : "VEC3"
        },
        {
            "bufferView" : 18,
            "componentType" : 5126,
            "count" : 1743,
            "type" : "VEC2"
        },
        {
            "bufferView" : 19,
            "componentType" : 5123,
            "count" : 2376,
            "type" : "SCALAR"
        },
        {
            "bufferView" : 20,
            "componentType" : 5126,
            "count" : 3,
            "max" : [
                0.25238037109375,
                2.752852201461792,
                7.341084003448486
            ],
            "min" : [
                -0.5855712890625,
                2.6051180362701416,
                7.341084003448486
            ],
            "type" : "VEC3"
        },
        {
            "bufferView" : 21,
            "componentType" : 5126,
            "count" : 3,
            "type" : "VEC3"
        },
        {
            "bufferView" : 22,
            "componentType" : 5126,
            "count" : 3,
            "type" : "VEC2"
        },
        {
            "bufferView" : 23,
            "componentType" : 5123,
            "count" : 3,
            "type" : "SCALAR"
        }
    ],
    "bufferViews" : [
        {
            "buffer" : 0,
            "byteLength" : 111072,
            "byteOffset" : 0
        },
        {
            "buffer" : 0,
            "byteLength" : 111072,
            "byteOffset" : 111072
        },
        {
            "buffer" : 0,
            "byteLength" : 74048,
            "byteOffset" : 222144
        },
        {
            "buffer" : 0,
            "byteLength" : 28434,
            "byteOffset" : 296192
        },
        {
            "buffer" : 0,
            "byteLength" : 10764,
            "byteOffset" : 324628
        },
        {
            "buffer" : 0,
            "byteLength" : 10764,
            "byteOffset" : 335392
        },
        {
            "buffer" : 0,
            "byteLength" : 7176,
            "byteOffset" : 346156
        },
        {
            "buffer" : 0,
            "byteLength" : 2508,
            "byteOffset" : 353332
        },
        {
            "buffer" : 0,
            "byteLength" : 78744,
            "byteOffset" : 355840
        },
        {
            "buffer" : 0,
            "byteLength" : 78744,
            "byteOffset" : 434584
        },
        {
            "buffer" : 0,
            "byteLength" : 52496,
            "byteOffset" : 513328
        },
        {
            "buffer" : 0,
            "byteLength" : 20976,
            "byteOffset" : 565824
        },
        {
            "buffer" : 0,
            "byteLength" : 1824,
            "byteOffset" : 586800
        },
        {
            "buffer" : 0,
            "byteLength" : 1824,
            "byteOffset" : 588624
        },
        {
            "buffer" : 0,
            "byteLength" : 1216,
            "byteOffset" : 590448
        },
        {
            "buffer" : 0,
            "byteLength" : 312,
            "byteOffset" : 591664
        },
        {
            "buffer" : 0,
            "byteLength" : 20916,
            "byteOffset" : 591976
        },
        {
            "buffer" : 0,
            "byteLength" : 20916,
            "byteOffset" : 612892
        },
        {
            "buffer" : 0,
            "byteLength" : 13944,
            "byteOffset" : 633808
        },
        {
            "buffer" : 0,
            "byteLength" : 4752,
            "byteOffset" : 647752
        },
        {
            "buffer" : 0,
            "byteLength" : 36,
            "byteOffset" : 652504
        },
        {
            "buffer" : 0,
            "byteLength" : 36,
            "byteOffset" : 652540
        },
        {
            "buffer" : 0,
            "byteLength" : 24,
            "byteOffset" : 652576
        },
        {
            "buffer" : 0,
            "byteLength" : 6,
            "byteOffset" : 652600
        }
    ],
    "buffers" : [
        {
            "byteLength" : 652608,
            "uri" : "data:application/octet-stream;base64,"
        }
    ]
}
